<svg xmlns="http://www.w3.org/2000/svg" viewBox="0 0 84 85"><title>Group 102</title><desc>Created with Sketch.</desc><g fill="#0E1A27" fill-rule="evenodd"><polygon points="0 4 4 4 4 0 0 0"/><polygon points="79 4 83 4 83 0 79 0"/><polygon points="80 85 84 85 84 81 80 81"/><polygon points="1 85 5 85 5 81 1 81"/><path d="M9.9 2.23c0-.51.4-.92.92-.92.5 0 .92.4.92.92 0 .5-.41.91-.92.91a.92.92 0 01-.93-.91M15.45 2.23c0-.51.41-.92.92-.92.52 0 .93.4.93.92 0 .5-.41.91-.93.91a.92.92 0 01-.92-.91M21.03 2.23c0-.51.41-.92.92-.92.52 0 .93.4.93.92 0 .5-.41.91-.93.91a.92.92 0 01-.92-.91M26.6 2.23c0-.51.42-.92.93-.92.52 0 .93.4.93.92 0 .5-.41.91-.93.91a.92.92 0 01-.92-.91M32.19 2.23c0-.51.41-.92.92-.92.52 0 .93.4.93.92 0 .5-.41.91-.93.91a.92.92 0 01-.92-.91M37.77 2.23c0-.51.41-.92.92-.92s.93.4.93.92c0 .5-.42.91-.93.91a.92.92 0 01-.92-.91M43.35 2.23c0-.51.41-.92.92-.92s.93.4.93.92c0 .5-.42.91-.93.91a.92.92 0 01-.92-.91M48.93 2.23c0-.51.41-.92.92-.92s.93.4.93.92c0 .5-.42.91-.93.91a.92.92 0 01-.92-.91M54.5 2.23c0-.51.42-.92.93-.92s.93.4.93.92c0 .5-.42.91-.93.91a.92.92 0 01-.92-.91M60.09 2.23c0-.51.41-.92.92-.92s.93.4.93.92c0 .5-.42.91-.93.91a.92.92 0 01-.92-.91M65.67 2.23c0-.51.41-.92.92-.92s.93.4.93.92c0 .5-.42.91-.93.91a.92.92 0 01-.92-.91M71.18 2.23c0-.51.42-.92.93-.92.5 0 .92.4.92.92 0 .5-.41.91-.92.91a.92.92 0 01-.93-.91M81.92 11.27c.5 0 .92.4.92.91a.92.92 0 01-1.85 0c0-.5.42-.91.93-.91M81.92 16.77c.5 0 .92.4.92.91a.92.92 0 01-1.85 0c0-.5.42-.91.93-.91M81.92 22.29c.5 0 .92.4.92.91a.92.92 0 01-1.85 0c0-.5.42-.91.93-.91M81.92 27.8c.5 0 .92.42.92.92s-.41.92-.92.92a.92.92 0 01-.93-.92c0-.5.42-.91.93-.91M81.92 33.33c.5 0 .92.4.92.91a.92.92 0 01-1.85 0c0-.5.42-.91.93-.91M81.92 38.85c.5 0 .92.4.92.91s-.41.92-.92.92a.92.92 0 01-.93-.92c0-.5.42-.91.93-.91M81.92 44.37c.5 0 .92.4.92.91s-.41.92-.92.92a.92.92 0 01-.93-.92c0-.5.42-.91.93-.91M81.92 49.89c.5 0 .92.4.92.92 0 .5-.41.91-.92.91a.92.92 0 01-.93-.91c0-.51.42-.92.93-.92M81.92 55.41c.5 0 .92.41.92.92 0 .5-.41.91-.92.91a.92.92 0 01-.93-.91c0-.51.42-.92.93-.92M81.92 60.93c.5 0 .92.41.92.92 0 .5-.41.91-.92.91a.92.92 0 01-.93-.91c0-.5.42-.92.93-.92M81.92 66.45c.5 0 .92.41.92.92 0 .5-.41.91-.92.91a.92.92 0 01-.93-.91c0-.5.42-.92.93-.92M81.92 71.9c.5 0 .92.42.92.92a.92.92 0 01-1.85 0c0-.5.42-.91.93-.91M2.23 11.27c.51 0 .93.4.93.91 0 .5-.42.92-.93.92a.92.92 0 01-.92-.92c0-.5.41-.91.92-.91M2.23 16.77c.51 0 .93.4.93.91 0 .5-.42.92-.93.92a.92.92 0 01-.92-.92c0-.5.41-.91.92-.91M2.23 22.29c.51 0 .93.4.93.91 0 .5-.42.92-.93.92a.92.92 0 01-.92-.92c0-.5.41-.91.92-.91M2.23 27.8c.51 0 .93.42.93.92s-.42.92-.93.92a.92.92 0 01-.92-.92c0-.5.41-.91.92-.91M2.23 33.33c.51 0 .93.4.93.91 0 .5-.42.92-.93.92a.92.92 0 01-.92-.92c0-.5.41-.91.92-.91M2.23 38.85c.51 0 .93.4.93.91s-.42.92-.93.92a.92.92 0 01-.92-.92c0-.5.41-.91.92-.91M2.23 44.37c.51 0 .93.4.93.91s-.42.92-.93.92a.92.92 0 01-.92-.92c0-.5.41-.91.92-.91M2.23 49.89c.51 0 .93.4.93.92 0 .5-.42.91-.93.91a.92.92 0 01-.92-.91c0-.51.41-.92.92-.92M2.23 55.41c.51 0 .93.41.93.92 0 .5-.42.91-.93.91a.92.92 0 01-.92-.91c0-.51.41-.92.92-.92M2.23 60.93c.51 0 .93.41.93.92 0 .5-.42.91-.93.91a.92.92 0 01-.92-.91c0-.5.41-.92.92-.92M2.23 66.45c.51 0 .93.41.93.92 0 .5-.42.91-.93.91a.92.92 0 01-.92-.91c0-.5.41-.92.92-.92M2.23 71.9c.51 0 .93.42.93.92 0 .51-.42.92-.93.92a.92.92 0 01-.92-.92c0-.5.41-.91.92-.91M9.87 82.78c0-.5.41-.91.92-.91.52 0 .93.4.93.91 0 .5-.41.92-.93.92a.92.92 0 01-.92-.92M15.43 82.78c0-.5.41-.91.92-.91s.93.4.93.91c0 .5-.42.92-.93.92a.92.92 0 01-.92-.92M21 82.78c0-.5.42-.91.93-.91s.93.4.93.91c0 .5-.42.92-.93.92a.92.92 0 01-.92-.92M26.59 82.78c0-.5.41-.91.92-.91s.93.4.93.91c0 .5-.42.92-.93.92a.92.92 0 01-.92-.92M32.17 82.78c0-.5.4-.91.92-.91.51 0 .93.4.93.91 0 .5-.42.92-.93.92a.92.92 0 01-.92-.92M37.74 82.78c0-.5.42-.91.93-.91s.93.4.93.91c0 .5-.42.92-.93.92a.92.92 0 01-.93-.92M43.32 82.78c0-.5.42-.91.93-.91s.93.4.93.91c0 .5-.42.92-.93.92a.92.92 0 01-.93-.92M48.9 82.78c0-.5.42-.91.93-.91s.93.4.93.91c0 .5-.42.92-.93.92a.92.92 0 01-.93-.92M54.48 82.78c0-.5.42-.91.93-.91s.93.4.93.91c0 .5-.42.92-.93.92a.92.92 0 01-.93-.92M60.06 82.78c0-.5.42-.91.93-.91s.92.4.92.91a.92.92 0 01-1.85 0M65.64 82.78c0-.5.42-.91.93-.91.5 0 .92.4.92.91a.92.92 0 01-1.85 0M71.16 82.78c0-.5.41-.91.92-.91.52 0 .93.4.93.91 0 .5-.41.92-.93.92a.92.92 0 01-.92-.92"/></g></svg>